<svg width="237" height="267" viewBox="0 0 237 267" fill="none" xmlns="http://www.w3.org/2000/svg">
<rect x="-3.07107" y="75.6658" width="117.028" height="187.933" rx="21" transform="rotate(-45 -3.07107 75.6658)" fill="white" stroke="white" stroke-width="10"/>
<mask id="path-2-outside-1" maskUnits="userSpaceOnUse" x="-10.1421" y="-63.6343" width="344.361" height="344.361" fill="black">
<rect fill="white" x="-10.1421" y="-63.6343" width="344.361" height="344.361"/>
<path d="M18.325 61.3408L74.1081 5.55765C78.0468 1.61894 83.237 -0.359057 88.4203 -0.366918C93.5999 -0.371003 98.7841 1.58373 102.715 5.51426L165.915 68.715C175.972 64.3527 185.081 66.8439 194.069 69.3052C200.237 70.9985 206.337 72.6618 211.842 71.2634C217.397 69.8461 222.838 69.1598 227.997 69.8602C233.534 70.6127 238.574 72.9067 242.839 77.4734C258.526 94.2842 267.346 100.411 282.646 111.041C287.576 114.461 293.168 118.34 299.693 123.062C304.394 125.213 306.366 129.493 306.312 135.008C306.272 138.967 305.056 143.674 303.059 148.567C301.157 153.229 298.558 158.1 295.621 162.663C287.099 175.886 274.941 187.036 266.818 185.259C266.408 185.166 266.02 185.027 265.662 184.85C264.691 184.385 263.471 183.837 262.063 183.221L258.265 181.596C250.843 182.308 243.071 182.851 235.315 182.61C227.861 182.376 220.509 181.408 213.653 179.17C209.5 182.299 207.896 184.603 205.065 188.66C203.838 190.421 202.429 192.446 201.018 194.355C196.639 200.268 190.233 201.445 184.476 199.77C182.07 199.07 179.778 197.834 177.844 196.224C175.858 194.57 174.222 192.519 173.182 190.242L172.991 189.764C172.799 189.308 172.631 188.845 172.484 188.382L158.925 201.941C154.983 205.884 149.796 207.858 144.613 207.866C139.433 207.877 134.246 205.911 130.319 201.985L18.2816 89.9473C14.351 86.0168 12.3925 80.8364 12.4004 75.653C12.4082 70.4697 14.3825 65.2833 18.325 61.3408ZM204.608 107.407L218.613 107.386C221.71 107.374 224.226 109.875 224.233 112.968C224.236 116.064 221.723 118.592 218.63 118.6L202.236 118.633C194.487 119.289 186.518 120.224 178.38 121.381C169.661 122.63 160.599 124.154 151.266 125.897C146.785 126.737 144.239 128.831 143.26 131.24C142.829 132.303 142.684 133.478 142.807 134.642C142.937 135.859 143.349 137.041 144.007 138.076C145.473 140.386 148.212 142.062 151.919 141.996C161.804 141.831 170.716 141.938 179.538 142.587C187.587 143.182 195.568 144.236 204.15 145.952C205.457 145.758 206.821 146.072 207.946 146.91C208.412 147.151 208.853 147.455 209.248 147.85C209.402 148.004 209.548 148.174 209.688 148.343C215.568 153.137 220.528 156.271 225.63 158.158C231.134 160.199 237.096 160.902 244.86 160.796C247.674 160.75 249.987 163.003 250.024 165.825C250.058 168.642 247.798 170.962 244.984 171.008C235.962 171.131 228.877 170.256 222.051 167.724C216.626 165.717 211.534 162.73 205.932 158.448L183.717 180.993C182.114 182.619 181.855 184.315 182.377 185.711L182.497 185.96C182.914 186.867 183.579 187.698 184.392 188.375C185.265 189.105 186.3 189.664 187.373 189.975C189.293 190.53 191.411 190.165 192.826 188.253C194.623 185.832 195.737 184.222 196.699 182.846C200.686 177.121 202.687 174.248 209.976 169.26C211.318 168.347 213.067 168.081 214.689 168.7C221.146 171.172 228.317 172.194 235.67 172.423C243.098 172.661 250.832 172.08 258.247 171.346C259.177 171.19 260.16 171.283 261.09 171.677L266.176 173.85L269.474 175.337C273.233 175.391 280.765 166.852 287.025 157.131C289.691 152.998 291.996 148.7 293.618 144.731C295.141 140.996 296.066 137.574 296.096 134.941C296.109 133.558 295.877 132.594 295.324 132.298C294.902 132.14 294.5 131.926 294.127 131.651C287.301 126.712 281.717 122.833 276.806 119.416C260.934 108.395 251.782 102.036 235.389 84.4724C232.865 81.7678 229.876 80.4087 226.592 79.9616C222.927 79.4662 218.741 80.0338 214.321 81.1593C206.208 83.2246 198.812 81.2016 191.338 79.1524C185.603 77.5828 179.801 75.9981 174.119 76.9184L204.608 107.407ZM103.829 105.202C106.082 105.003 108.069 106.672 108.257 108.928C108.453 111.184 106.774 113.172 104.521 113.372C101.247 113.659 97.9782 113.219 94.9738 112.132C91.9355 111.032 89.1581 109.289 86.8412 106.972C84.2835 104.414 82.4198 101.29 81.3626 97.9319C80.3129 94.5884 80.0661 90.9611 80.7044 87.3589C81.0995 85.1283 83.2339 83.6409 85.4633 84.0368C87.689 84.4289 89.1738 86.555 88.7749 88.7819C88.3797 91.0126 88.5457 93.3064 89.2168 95.4413C89.8841 97.5498 91.0564 99.5219 92.6738 101.139C94.1444 102.61 95.9057 103.722 97.807 104.416C99.7045 105.107 101.768 105.382 103.829 105.202ZM102.454 75.5391C100.201 75.7384 98.2146 74.0688 98.0184 71.8127C97.8259 69.5604 99.509 67.5688 101.762 67.3695C105.032 67.0858 108.301 67.5254 111.306 68.6132C114.348 69.7086 117.125 71.4523 119.442 73.7692C122 76.3269 123.863 79.4506 124.917 82.813C125.966 86.1564 126.213 89.7837 125.579 93.3821C125.176 95.6128 123.046 97.104 120.816 96.708C118.59 96.3159 117.106 94.1898 117.505 91.9629C117.903 89.7285 117.734 87.4384 117.066 85.2998C116.399 83.1913 115.227 81.2191 113.609 79.6018C112.139 78.1311 110.374 77.0226 108.472 76.3285C106.579 75.6345 104.511 75.3627 102.454 75.5391ZM105.21 121.379C107.47 121.18 109.464 122.849 109.66 125.105C109.86 127.365 108.185 129.364 105.924 129.571C100.266 130.069 94.62 129.306 89.3868 127.408C84.1461 125.509 79.3289 122.488 75.3269 118.486C70.8923 114.052 67.6798 108.658 65.8541 102.841C64.0321 97.0428 63.5933 90.7639 64.7027 84.5617C65.1054 82.3311 67.236 80.8474 69.4655 81.2358C71.6949 81.6317 73.1721 83.7578 72.777 85.9885C71.9107 90.8266 72.2649 95.7608 73.7082 100.351C75.1403 104.922 77.6653 109.159 81.1595 112.654C84.3378 115.832 88.1124 118.211 92.2011 119.696C96.2974 121.182 100.745 121.774 105.21 121.379ZM101.073 59.362C98.8092 59.5651 96.8152 57.8956 96.619 55.6394C96.419 53.3795 98.0984 51.3767 100.355 51.1737C106.014 50.6754 111.663 51.4353 116.896 53.3334C122.133 55.2353 126.951 58.2567 130.953 62.2587C135.387 66.6932 138.603 72.0827 140.425 77.9037C142.251 83.6983 142.69 89.9772 141.577 96.1831C141.178 98.41 139.043 99.8974 136.814 99.509C134.585 99.1131 133.107 96.987 133.502 94.7563C134.372 89.9144 134.018 84.9802 132.571 80.3942C131.143 75.8195 128.61 71.5817 125.12 68.0913C121.942 64.913 118.167 62.5342 114.078 61.0487C109.982 59.5632 105.538 58.9672 101.073 59.362ZM98.1635 95.3486C95.4215 92.6066 95.4283 88.154 98.1748 85.4075C100.925 82.6572 105.378 82.6505 108.12 85.3924C110.862 88.1344 110.855 92.587 108.105 95.3373C105.358 98.0838 100.905 98.0906 98.1635 95.3486ZM192.053 109.363L161.263 78.5727L95.4597 12.7692C93.5264 10.8359 90.9588 9.86788 88.4048 9.87176C85.8433 9.87564 83.2802 10.8514 81.3411 12.7906L25.5579 68.5738C23.6187 70.5129 22.6392 73.0797 22.6391 75.6375C22.6314 78.1953 23.6032 80.7591 25.5365 82.6924L137.574 194.73C139.511 196.667 142.067 197.631 144.629 197.627C147.183 197.623 149.753 196.647 151.692 194.708L192.162 154.238C187.635 153.582 183.195 153.103 178.731 152.775L178.558 152.76C178.293 156.019 176.921 159.196 174.442 161.675C171.673 164.444 168.028 165.832 164.393 165.841C160.743 165.858 157.11 164.474 154.338 161.702C151.697 159.061 150.316 155.635 150.201 152.17C143.474 151.728 138.356 148.24 135.399 143.577C133.88 141.191 132.943 138.496 132.653 135.761C132.36 132.978 132.722 130.103 133.818 127.404C136.015 122.003 141.051 117.426 149.442 115.857C158.795 114.11 167.981 112.567 176.952 111.284C182.095 110.549 187.133 109.905 192.053 109.363ZM171.759 152.375C167.009 152.175 162.146 152.118 157.031 152.148C157.149 153.873 157.862 155.552 159.174 156.865C160.615 158.306 162.505 159.026 164.392 159.027C166.279 159.028 168.172 158.302 169.62 156.853C170.877 155.597 171.587 154.006 171.759 152.375Z"/>
</mask>
<path d="M18.325 61.3408L74.1081 5.55765C78.0468 1.61894 83.237 -0.359057 88.4203 -0.366918C93.5999 -0.371003 98.7841 1.58373 102.715 5.51426L165.915 68.715C175.972 64.3527 185.081 66.8439 194.069 69.3052C200.237 70.9985 206.337 72.6618 211.842 71.2634C217.397 69.8461 222.838 69.1598 227.997 69.8602C233.534 70.6127 238.574 72.9067 242.839 77.4734C258.526 94.2842 267.346 100.411 282.646 111.041C287.576 114.461 293.168 118.34 299.693 123.062C304.394 125.213 306.366 129.493 306.312 135.008C306.272 138.967 305.056 143.674 303.059 148.567C301.157 153.229 298.558 158.1 295.621 162.663C287.099 175.886 274.941 187.036 266.818 185.259C266.408 185.166 266.02 185.027 265.662 184.85C264.691 184.385 263.471 183.837 262.063 183.221L258.265 181.596C250.843 182.308 243.071 182.851 235.315 182.61C227.861 182.376 220.509 181.408 213.653 179.17C209.5 182.299 207.896 184.603 205.065 188.66C203.838 190.421 202.429 192.446 201.018 194.355C196.639 200.268 190.233 201.445 184.476 199.77C182.07 199.07 179.778 197.834 177.844 196.224C175.858 194.57 174.222 192.519 173.182 190.242L172.991 189.764C172.799 189.308 172.631 188.845 172.484 188.382L158.925 201.941C154.983 205.884 149.796 207.858 144.613 207.866C139.433 207.877 134.246 205.911 130.319 201.985L18.2816 89.9473C14.351 86.0168 12.3925 80.8364 12.4004 75.653C12.4082 70.4697 14.3825 65.2833 18.325 61.3408ZM204.608 107.407L218.613 107.386C221.71 107.374 224.226 109.875 224.233 112.968C224.236 116.064 221.723 118.592 218.63 118.6L202.236 118.633C194.487 119.289 186.518 120.224 178.38 121.381C169.661 122.63 160.599 124.154 151.266 125.897C146.785 126.737 144.239 128.831 143.26 131.24C142.829 132.303 142.684 133.478 142.807 134.642C142.937 135.859 143.349 137.041 144.007 138.076C145.473 140.386 148.212 142.062 151.919 141.996C161.804 141.831 170.716 141.938 179.538 142.587C187.587 143.182 195.568 144.236 204.15 145.952C205.457 145.758 206.821 146.072 207.946 146.91C208.412 147.151 208.853 147.455 209.248 147.85C209.402 148.004 209.548 148.174 209.688 148.343C215.568 153.137 220.528 156.271 225.63 158.158C231.134 160.199 237.096 160.902 244.86 160.796C247.674 160.75 249.987 163.003 250.024 165.825C250.058 168.642 247.798 170.962 244.984 171.008C235.962 171.131 228.877 170.256 222.051 167.724C216.626 165.717 211.534 162.73 205.932 158.448L183.717 180.993C182.114 182.619 181.855 184.315 182.377 185.711L182.497 185.96C182.914 186.867 183.579 187.698 184.392 188.375C185.265 189.105 186.3 189.664 187.373 189.975C189.293 190.53 191.411 190.165 192.826 188.253C194.623 185.832 195.737 184.222 196.699 182.846C200.686 177.121 202.687 174.248 209.976 169.26C211.318 168.347 213.067 168.081 214.689 168.7C221.146 171.172 228.317 172.194 235.67 172.423C243.098 172.661 250.832 172.08 258.247 171.346C259.177 171.19 260.16 171.283 261.09 171.677L266.176 173.85L269.474 175.337C273.233 175.391 280.765 166.852 287.025 157.131C289.691 152.998 291.996 148.7 293.618 144.731C295.141 140.996 296.066 137.574 296.096 134.941C296.109 133.558 295.877 132.594 295.324 132.298C294.902 132.14 294.5 131.926 294.127 131.651C287.301 126.712 281.717 122.833 276.806 119.416C260.934 108.395 251.782 102.036 235.389 84.4724C232.865 81.7678 229.876 80.4087 226.592 79.9616C222.927 79.4662 218.741 80.0338 214.321 81.1593C206.208 83.2246 198.812 81.2016 191.338 79.1524C185.603 77.5828 179.801 75.9981 174.119 76.9184L204.608 107.407ZM103.829 105.202C106.082 105.003 108.069 106.672 108.257 108.928C108.453 111.184 106.774 113.172 104.521 113.372C101.247 113.659 97.9782 113.219 94.9738 112.132C91.9355 111.032 89.1581 109.289 86.8412 106.972C84.2835 104.414 82.4198 101.29 81.3626 97.9319C80.3129 94.5884 80.0661 90.9611 80.7044 87.3589C81.0995 85.1283 83.2339 83.6409 85.4633 84.0368C87.689 84.4289 89.1738 86.555 88.7749 88.7819C88.3797 91.0126 88.5457 93.3064 89.2168 95.4413C89.8841 97.5498 91.0564 99.5219 92.6738 101.139C94.1444 102.61 95.9057 103.722 97.807 104.416C99.7045 105.107 101.768 105.382 103.829 105.202ZM102.454 75.5391C100.201 75.7384 98.2146 74.0688 98.0184 71.8127C97.8259 69.5604 99.509 67.5688 101.762 67.3695C105.032 67.0858 108.301 67.5254 111.306 68.6132C114.348 69.7086 117.125 71.4523 119.442 73.7692C122 76.3269 123.863 79.4506 124.917 82.813C125.966 86.1564 126.213 89.7837 125.579 93.3821C125.176 95.6128 123.046 97.104 120.816 96.708C118.59 96.3159 117.106 94.1898 117.505 91.9629C117.903 89.7285 117.734 87.4384 117.066 85.2998C116.399 83.1913 115.227 81.2191 113.609 79.6018C112.139 78.1311 110.374 77.0226 108.472 76.3285C106.579 75.6345 104.511 75.3627 102.454 75.5391ZM105.21 121.379C107.47 121.18 109.464 122.849 109.66 125.105C109.86 127.365 108.185 129.364 105.924 129.571C100.266 130.069 94.62 129.306 89.3868 127.408C84.1461 125.509 79.3289 122.488 75.3269 118.486C70.8923 114.052 67.6798 108.658 65.8541 102.841C64.0321 97.0428 63.5933 90.7639 64.7027 84.5617C65.1054 82.3311 67.236 80.8474 69.4655 81.2358C71.6949 81.6317 73.1721 83.7578 72.777 85.9885C71.9107 90.8266 72.2649 95.7608 73.7082 100.351C75.1403 104.922 77.6653 109.159 81.1595 112.654C84.3378 115.832 88.1124 118.211 92.2011 119.696C96.2974 121.182 100.745 121.774 105.21 121.379ZM101.073 59.362C98.8092 59.5651 96.8152 57.8956 96.619 55.6394C96.419 53.3795 98.0984 51.3767 100.355 51.1737C106.014 50.6754 111.663 51.4353 116.896 53.3334C122.133 55.2353 126.951 58.2567 130.953 62.2587C135.387 66.6932 138.603 72.0827 140.425 77.9037C142.251 83.6983 142.69 89.9772 141.577 96.1831C141.178 98.41 139.043 99.8974 136.814 99.509C134.585 99.1131 133.107 96.987 133.502 94.7563C134.372 89.9144 134.018 84.9802 132.571 80.3942C131.143 75.8195 128.61 71.5817 125.12 68.0913C121.942 64.913 118.167 62.5342 114.078 61.0487C109.982 59.5632 105.538 58.9672 101.073 59.362ZM98.1635 95.3486C95.4215 92.6066 95.4283 88.154 98.1748 85.4075C100.925 82.6572 105.378 82.6505 108.12 85.3924C110.862 88.1344 110.855 92.587 108.105 95.3373C105.358 98.0838 100.905 98.0906 98.1635 95.3486ZM192.053 109.363L161.263 78.5727L95.4597 12.7692C93.5264 10.8359 90.9588 9.86788 88.4048 9.87176C85.8433 9.87564 83.2802 10.8514 81.3411 12.7906L25.5579 68.5738C23.6187 70.5129 22.6392 73.0797 22.6391 75.6375C22.6314 78.1953 23.6032 80.7591 25.5365 82.6924L137.574 194.73C139.511 196.667 142.067 197.631 144.629 197.627C147.183 197.623 149.753 196.647 151.692 194.708L192.162 154.238C187.635 153.582 183.195 153.103 178.731 152.775L178.558 152.76C178.293 156.019 176.921 159.196 174.442 161.675C171.673 164.444 168.028 165.832 164.393 165.841C160.743 165.858 157.11 164.474 154.338 161.702C151.697 159.061 150.316 155.635 150.201 152.17C143.474 151.728 138.356 148.24 135.399 143.577C133.88 141.191 132.943 138.496 132.653 135.761C132.36 132.978 132.722 130.103 133.818 127.404C136.015 122.003 141.051 117.426 149.442 115.857C158.795 114.11 167.981 112.567 176.952 111.284C182.095 110.549 187.133 109.905 192.053 109.363ZM171.759 152.375C167.009 152.175 162.146 152.118 157.031 152.148C157.149 153.873 157.862 155.552 159.174 156.865C160.615 158.306 162.505 159.026 164.392 159.027C166.279 159.028 168.172 158.302 169.62 156.853C170.877 155.597 171.587 154.006 171.759 152.375Z" fill="#AED7A0"/>
<path d="M18.325 61.3408L74.1081 5.55765C78.0468 1.61894 83.237 -0.359057 88.4203 -0.366918C93.5999 -0.371003 98.7841 1.58373 102.715 5.51426L165.915 68.715C175.972 64.3527 185.081 66.8439 194.069 69.3052C200.237 70.9985 206.337 72.6618 211.842 71.2634C217.397 69.8461 222.838 69.1598 227.997 69.8602C233.534 70.6127 238.574 72.9067 242.839 77.4734C258.526 94.2842 267.346 100.411 282.646 111.041C287.576 114.461 293.168 118.34 299.693 123.062C304.394 125.213 306.366 129.493 306.312 135.008C306.272 138.967 305.056 143.674 303.059 148.567C301.157 153.229 298.558 158.1 295.621 162.663C287.099 175.886 274.941 187.036 266.818 185.259C266.408 185.166 266.02 185.027 265.662 184.85C264.691 184.385 263.471 183.837 262.063 183.221L258.265 181.596C250.843 182.308 243.071 182.851 235.315 182.61C227.861 182.376 220.509 181.408 213.653 179.17C209.5 182.299 207.896 184.603 205.065 188.66C203.838 190.421 202.429 192.446 201.018 194.355C196.639 200.268 190.233 201.445 184.476 199.77C182.07 199.07 179.778 197.834 177.844 196.224C175.858 194.57 174.222 192.519 173.182 190.242L172.991 189.764C172.799 189.308 172.631 188.845 172.484 188.382L158.925 201.941C154.983 205.884 149.796 207.858 144.613 207.866C139.433 207.877 134.246 205.911 130.319 201.985L18.2816 89.9473C14.351 86.0168 12.3925 80.8364 12.4004 75.653C12.4082 70.4697 14.3825 65.2833 18.325 61.3408ZM204.608 107.407L218.613 107.386C221.71 107.374 224.226 109.875 224.233 112.968C224.236 116.064 221.723 118.592 218.63 118.6L202.236 118.633C194.487 119.289 186.518 120.224 178.38 121.381C169.661 122.63 160.599 124.154 151.266 125.897C146.785 126.737 144.239 128.831 143.26 131.24C142.829 132.303 142.684 133.478 142.807 134.642C142.937 135.859 143.349 137.041 144.007 138.076C145.473 140.386 148.212 142.062 151.919 141.996C161.804 141.831 170.716 141.938 179.538 142.587C187.587 143.182 195.568 144.236 204.15 145.952C205.457 145.758 206.821 146.072 207.946 146.91C208.412 147.151 208.853 147.455 209.248 147.85C209.402 148.004 209.548 148.174 209.688 148.343C215.568 153.137 220.528 156.271 225.63 158.158C231.134 160.199 237.096 160.902 244.86 160.796C247.674 160.75 249.987 163.003 250.024 165.825C250.058 168.642 247.798 170.962 244.984 171.008C235.962 171.131 228.877 170.256 222.051 167.724C216.626 165.717 211.534 162.73 205.932 158.448L183.717 180.993C182.114 182.619 181.855 184.315 182.377 185.711L182.497 185.96C182.914 186.867 183.579 187.698 184.392 188.375C185.265 189.105 186.3 189.664 187.373 189.975C189.293 190.53 191.411 190.165 192.826 188.253C194.623 185.832 195.737 184.222 196.699 182.846C200.686 177.121 202.687 174.248 209.976 169.26C211.318 168.347 213.067 168.081 214.689 168.7C221.146 171.172 228.317 172.194 235.67 172.423C243.098 172.661 250.832 172.08 258.247 171.346C259.177 171.19 260.16 171.283 261.09 171.677L266.176 173.85L269.474 175.337C273.233 175.391 280.765 166.852 287.025 157.131C289.691 152.998 291.996 148.7 293.618 144.731C295.141 140.996 296.066 137.574 296.096 134.941C296.109 133.558 295.877 132.594 295.324 132.298C294.902 132.14 294.5 131.926 294.127 131.651C287.301 126.712 281.717 122.833 276.806 119.416C260.934 108.395 251.782 102.036 235.389 84.4724C232.865 81.7678 229.876 80.4087 226.592 79.9616C222.927 79.4662 218.741 80.0338 214.321 81.1593C206.208 83.2246 198.812 81.2016 191.338 79.1524C185.603 77.5828 179.801 75.9981 174.119 76.9184L204.608 107.407ZM103.829 105.202C106.082 105.003 108.069 106.672 108.257 108.928C108.453 111.184 106.774 113.172 104.521 113.372C101.247 113.659 97.9782 113.219 94.9738 112.132C91.9355 111.032 89.1581 109.289 86.8412 106.972C84.2835 104.414 82.4198 101.29 81.3626 97.9319C80.3129 94.5884 80.0661 90.9611 80.7044 87.3589C81.0995 85.1283 83.2339 83.6409 85.4633 84.0368C87.689 84.4289 89.1738 86.555 88.7749 88.7819C88.3797 91.0126 88.5457 93.3064 89.2168 95.4413C89.8841 97.5498 91.0564 99.5219 92.6738 101.139C94.1444 102.61 95.9057 103.722 97.807 104.416C99.7045 105.107 101.768 105.382 103.829 105.202ZM102.454 75.5391C100.201 75.7384 98.2146 74.0688 98.0184 71.8127C97.8259 69.5604 99.509 67.5688 101.762 67.3695C105.032 67.0858 108.301 67.5254 111.306 68.6132C114.348 69.7086 117.125 71.4523 119.442 73.7692C122 76.3269 123.863 79.4506 124.917 82.813C125.966 86.1564 126.213 89.7837 125.579 93.3821C125.176 95.6128 123.046 97.104 120.816 96.708C118.59 96.3159 117.106 94.1898 117.505 91.9629C117.903 89.7285 117.734 87.4384 117.066 85.2998C116.399 83.1913 115.227 81.2191 113.609 79.6018C112.139 78.1311 110.374 77.0226 108.472 76.3285C106.579 75.6345 104.511 75.3627 102.454 75.5391ZM105.21 121.379C107.47 121.18 109.464 122.849 109.66 125.105C109.86 127.365 108.185 129.364 105.924 129.571C100.266 130.069 94.62 129.306 89.3868 127.408C84.1461 125.509 79.3289 122.488 75.3269 118.486C70.8923 114.052 67.6798 108.658 65.8541 102.841C64.0321 97.0428 63.5933 90.7639 64.7027 84.5617C65.1054 82.3311 67.236 80.8474 69.4655 81.2358C71.6949 81.6317 73.1721 83.7578 72.777 85.9885C71.9107 90.8266 72.2649 95.7608 73.7082 100.351C75.1403 104.922 77.6653 109.159 81.1595 112.654C84.3378 115.832 88.1124 118.211 92.2011 119.696C96.2974 121.182 100.745 121.774 105.21 121.379ZM101.073 59.362C98.8092 59.5651 96.8152 57.8956 96.619 55.6394C96.419 53.3795 98.0984 51.3767 100.355 51.1737C106.014 50.6754 111.663 51.4353 116.896 53.3334C122.133 55.2353 126.951 58.2567 130.953 62.2587C135.387 66.6932 138.603 72.0827 140.425 77.9037C142.251 83.6983 142.69 89.9772 141.577 96.1831C141.178 98.41 139.043 99.8974 136.814 99.509C134.585 99.1131 133.107 96.987 133.502 94.7563C134.372 89.9144 134.018 84.9802 132.571 80.3942C131.143 75.8195 128.61 71.5817 125.12 68.0913C121.942 64.913 118.167 62.5342 114.078 61.0487C109.982 59.5632 105.538 58.9672 101.073 59.362ZM98.1635 95.3486C95.4215 92.6066 95.4283 88.154 98.1748 85.4075C100.925 82.6572 105.378 82.6505 108.12 85.3924C110.862 88.1344 110.855 92.587 108.105 95.3373C105.358 98.0838 100.905 98.0906 98.1635 95.3486ZM192.053 109.363L161.263 78.5727L95.4597 12.7692C93.5264 10.8359 90.9588 9.86788 88.4048 9.87176C85.8433 9.87564 83.2802 10.8514 81.3411 12.7906L25.5579 68.5738C23.6187 70.5129 22.6392 73.0797 22.6391 75.6375C22.6314 78.1953 23.6032 80.7591 25.5365 82.6924L137.574 194.73C139.511 196.667 142.067 197.631 144.629 197.627C147.183 197.623 149.753 196.647 151.692 194.708L192.162 154.238C187.635 153.582 183.195 153.103 178.731 152.775L178.558 152.76C178.293 156.019 176.921 159.196 174.442 161.675C171.673 164.444 168.028 165.832 164.393 165.841C160.743 165.858 157.11 164.474 154.338 161.702C151.697 159.061 150.316 155.635 150.201 152.17C143.474 151.728 138.356 148.24 135.399 143.577C133.88 141.191 132.943 138.496 132.653 135.761C132.36 132.978 132.722 130.103 133.818 127.404C136.015 122.003 141.051 117.426 149.442 115.857C158.795 114.11 167.981 112.567 176.952 111.284C182.095 110.549 187.133 109.905 192.053 109.363ZM171.759 152.375C167.009 152.175 162.146 152.118 157.031 152.148C157.149 153.873 157.862 155.552 159.174 156.865C160.615 158.306 162.505 159.026 164.392 159.027C166.279 159.028 168.172 158.302 169.62 156.853C170.877 155.597 171.587 154.006 171.759 152.375Z" stroke="white" stroke-width="20" mask="url(#path-2-outside-1)"/>
</svg>
