<svg width="286" height="399" viewBox="0 0 286 399" fill="none" xmlns="http://www.w3.org/2000/svg">
<path fill-rule="evenodd" clip-rule="evenodd" d="M-370 37.4197C-370.647 39.1571 -371 41.0373 -371 43L-371 157C-371 158.963 -370.647 160.843 -370 162.58V37.4197ZM-6.00003 319H246V173H138V193C138 201.836 130.837 209 122 209H97.9893C97.7275 215.119 92.6837 220 86.5 220H69.5C63.3162 220 58.2724 215.119 58.0107 209H34C25.1634 209 18 201.836 18 193V173H-6.00003V161L18 161H138L270 161C272.209 161 274 159.209 274 157V43C274 40.7909 272.209 39 270 39H258H-6.00003V27H246V16C246 13.7909 244.209 12 242 12H-6.00003V0L242 0C250.836 0 258 7.16344 258 16V27H270C278.836 27 286 34.1634 286 43V157C286 165.837 278.836 173 270 173H258V319H270C278.836 319 286 326.163 286 335V383C286 391.836 278.836 399 270 399H-6.00003V387H270C272.209 387 274 385.209 274 383V335C274 332.791 272.209 331 270 331H-6.00003V319ZM126 193V173H30V193C30 195.209 31.7908 197 34 197H69.5H86.5H122C124.209 197 126 195.209 126 193ZM-370 329.42C-370.647 331.157 -371 333.037 -371 335V383C-371 384.963 -370.647 386.843 -370 388.58V329.42ZM195 51C186.163 51 179 58.1634 179 67V84C179 92.8365 186.163 100 195 100H246C254.836 100 262 92.8365 262 84V67C262 58.1634 254.836 51 246 51H195ZM-207 138C-215.837 138 -223 145.163 -223 154V193C-223 201.837 -215.837 209 -207 209H-190.719C-189.315 216.403 -182.811 222 -175 222H-151C-143.189 222 -136.685 216.403 -135.281 209H-119C-110.164 209 -103 201.837 -103 193V154C-103 145.163 -110.164 138 -119 138H-207Z" fill="#AED7A0"/>
</svg>
